<svg width="18" height="18" viewBox="0 0 18 18" fill="none" xmlns="http://www.w3.org/2000/svg">
<path d="M15.6721 16.5001C16.1293 16.5001 16.5 16.1293 16.5 15.6722V2.32786C16.5 1.87054 16.1293 1.5 15.6721 1.5H2.32786C1.87054 1.5 1.5 1.8706 1.5 2.32786V15.6721C1.5 16.1293 1.87054 16.5 2.32786 16.5H15.6721V16.5001Z" fill="#18181D"/>
<path d="M11.8497 16.5001V10.6913H13.7995L14.0914 8.4275H11.8496V6.98209C11.8496 6.32666 12.0316 5.88002 12.9716 5.88002L14.1704 5.87946V3.85471C13.963 3.82717 13.2514 3.76552 12.4235 3.76552C10.6952 3.76552 9.51186 4.82049 9.51186 6.75795V8.42744H7.55708V10.6912H9.51186V16.5H11.8497V16.5001Z" fill="white"/>
</svg>
