<svg width="32" height="32" viewBox="0 0 32 32" fill="none" xmlns="http://www.w3.org/2000/svg">
<path d="M27.8616 29.3334C28.6744 29.3334 29.3333 28.6744 29.3333 27.8617V4.13841C29.3333 3.3254 28.6743 2.66666 27.8616 2.66666H4.13841C3.3254 2.66666 2.66666 3.3255 2.66666 4.13841V27.8616C2.66666 28.6744 3.3254 29.3333 4.13841 29.3333H27.8616V29.3334Z" fill="#18181D"/>
<path d="M21.0661 29.3334V19.0067H24.5325L25.0514 14.9822H21.066V12.4126C21.066 11.2474 21.3896 10.4534 23.0606 10.4534L25.1917 10.4524V6.85282C24.823 6.80386 23.558 6.69425 22.0863 6.69425C19.0137 6.69425 16.91 8.56976 16.91 12.0141V14.9821H13.4348V19.0066H16.91V29.3333H21.0661V29.3334Z" fill="white"/>
</svg>
