<?xml version="1.0" encoding="UTF-8"?>
<svg width="16px" height="14px" viewBox="0 0 16 14" version="1.1" xmlns="http://www.w3.org/2000/svg" xmlns:xlink="http://www.w3.org/1999/xlink">
    <!-- Generator: Sketch 55.1 (78136) - https://sketchapp.com -->
    <title>Icon/Social 20px/instagram [#167]</title>
    <desc>Created with Sketch.</desc>
    <g id="WIP" stroke="none" stroke-width="1" fill="none" fill-rule="evenodd">
        <g id="Footer-Copy-2" transform="translate(-241.000000, -57.000000)" fill="#000000">
            <g id="Group-11" transform="translate(170.000000, 57.000000)">
                <path d="M76.0909871,0.0859088202 C74.9467508,0.137324166 73.954986,0.415939757 73.1541605,1.21009841 C72.3505373,2.00842588 72.07427,2.9999083 72.0225136,4.1275719 C71.9903407,4.8314063 71.8021991,10.1487258 72.3477397,11.5431934 C72.7156298,12.4839552 73.4402196,13.2072441 74.3935167,13.5747943 C74.8383421,13.7471052 75.3461144,13.863832 76.0909871,13.8978772 C82.3192416,14.1785772 84.6279972,14.0257208 85.6015772,11.5431934 C85.7743317,11.1012993 85.8932316,10.5961783 85.9261039,9.85621417 C86.2107642,3.63773651 85.8799428,2.28982068 84.794457,1.21009841 C83.9334821,0.354797184 82.920735,-0.22744687 76.0909871,0.0859088202 M76.1483388,12.6472337 C75.4664131,12.6166624 75.0964247,12.5034097 74.8495326,12.4082218 C74.2284557,12.1678203 73.7619486,11.7050822 73.5220506,11.0901825 C73.1066005,10.0306095 73.2443845,4.99815877 73.2814533,4.18385086 C73.3178226,3.38621819 73.480086,2.65737092 74.04521,2.09458132 C74.744621,1.39977935 75.6482599,1.05932638 81.8009781,1.33585757 C82.6039019,1.37198727 83.337584,1.53318133 83.9041068,2.09458132 C84.6035178,2.7893833 84.9504256,3.69609987 84.6678636,9.79993521 C84.6370895,10.4773671 84.5230855,10.8449174 84.4272662,11.0901825 C83.7942993,12.7055971 82.3381257,12.9300181 76.1483388,12.6472337 M81.868821,3.2826927 C81.868821,3.74265161 82.2444046,4.11645507 82.7081141,4.11645507 C83.1718236,4.11645507 83.5481067,3.74265161 83.5481067,3.2826927 C83.5481067,2.82273379 83.1718236,2.44893033 82.7081141,2.44893033 C82.2444046,2.44893033 81.868821,2.82273379 81.868821,3.2826927 M75.3831832,6.99154563 C75.3831832,8.96200403 76.991129,10.5593538 78.9746584,10.5593538 C80.9581879,10.5593538 82.5661337,8.96200403 82.5661337,6.99154563 C82.5661337,5.02108724 80.9581879,3.4244323 78.9746584,3.4244323 C76.991129,3.4244323 75.3831832,5.02108724 75.3831832,6.99154563 M76.6435217,6.99154563 C76.6435217,5.71311 77.6870429,4.67577066 78.9746584,4.67577066 C80.262274,4.67577066 81.3057951,5.71311 81.3057951,6.99154563 C81.3057951,8.27067607 80.262274,9.30801541 78.9746584,9.30801541 C77.6870429,9.30801541 76.6435217,8.27067607 76.6435217,6.99154563" id="Icon/Social-20px/instagram-[#167]"></path>
            </g>
        </g>
    </g>
</svg>